:SAMPLES-PER-SECOND 30
:FULLY-SPECIFIED
:DEGREES
617
root  -52.0493 41.3216 -25.184 11.0182 37.3776 7.98834
RightUpLeg  -3.84304 -16.613 -16.4445
RightLeg  5.67686 -36.3098 3.75852
RightFoot  1.39324 -0.601517 5.46452
RightToes  0.000482159 0.542163 -0.142577
Spine  17.0438 -0.607641 17.7499
Spine1  9.05074 4.145 -8.72457
HEad  -6.9509 15.032 -15.2759
LeftShoulder1  8.58176 -12.7784 -45.9633
LeftArm  -6.1571 22.1777 -29.5071
LeftForeArm  35.132 -33.0822 -5.31872
LeftHand  -0.25398 0.0180481 5.50724
RightShoulder  5.79182 10.3013 35.9731
RightArm  -7.56493 -18.6458 29.2977
RightForeArm  21.5803 69.0693 28.9786
RightHand  -5.53902 16.0791 -29.7523
LeftUpLeg  -14.114 16.7257 0.365034
LeftLeg  7.22509 19.8621 -3.62938
LeftFoot  -0.759176 -0.0131908 0.193423
LeftToes  1.06246e-005 4.65854e-005 -8.18502e-006
618
root  -51.523 41.2734 -25.2396 11.4307 39.0992 7.60681
RightUpLeg  -2.98556 -16.1649 -16.4833
RightLeg  4.33545 -38.3577 4.05797
RightFoot  2.29194 -0.786517 6.70219
RightToes  0.000482159 0.542163 -0.142577
Spine  16.4194 -0.0610918 17.6258
Spine1  8.44772 4.78637 -9.60707
HEad  -7.48563 14.9036 -15.2074
LeftShoulder1  8.54073 -12.7454 -45.8323
LeftArm  -5.77799 23.0958 -29.7035
LeftForeArm  35.3492 -31.3789 -4.90086
LeftHand  -0.25398 0.0180481 5.50724
RightShoulder  5.69491 10.1057 35.8662
RightArm  -5.03261 -19.5214 31.1682
RightForeArm  22.4992 70.0791 30.8849
RightHand  -5.89978 16.671 -30.7452
LeftUpLeg  -13.611 13.4994 2.48704
LeftLeg  3.63759 30.8111 -6.49048
LeftFoot  -0.808427 -0.110638 1.25481
LeftToes  1.06246e-005 4.65854e-005 -8.18502e-006
619
root  -50.8716 41.1826 -25.3261 11.6046 40.8887 7.08777
RightUpLeg  -2.03036 -15.8206 -16.6478
RightLeg  3.5104 -40.5397 4.08883
RightFoot  2.94547 -0.955706 7.77958
RightToes  0.000482159 0.542163 -0.142577
Spine  15.7867 0.44129 17.621
Spine1  7.87482 5.36827 -10.3636
HEad  -7.85405 14.6619 -15.1103
LeftShoulder1  8.5415 -12.7311 -45.8781
LeftArm  -5.08568 24.0254 -29.5801
LeftForeArm  35.5231 -29.5236 -4.46602
LeftHand  -0.25398 0.0180481 5.50724
RightShoulder  5.58208 9.94709 35.5289
RightArm  -2.61781 -20.0314 33.0088
RightForeArm  22.2234 70.8054 32.6108
RightHand  -6.78597 18.165 -32.9736
LeftUpLeg  -13.4289 12.4027 3.42419
LeftLeg  1.39084 38.2452 -8.53982
LeftFoot  -0.942549 -0.159008 1.80934
LeftToes  1.06246e-005 4.65854e-005 -8.18502e-006
620
root  -50.0687 41.0529 -25.4228 11.6618 43.097 6.7149
RightUpLeg  -0.61888 -15.7861 -17.2707
RightLeg  2.92217 -42.3453 4.21266
RightFoot  3.37658 -1.07204 8.46463
RightToes  0.000482159 0.542163 -0.142577
Spine  14.7236 0.807863 17.5699
Spine1  7.77051 5.75303 -10.9675
HEad  -8.09457 14.0872 -14.5244
LeftShoulder1  8.53138 -12.6886 -45.9459
LeftArm  -4.29006 24.8673 -29.2617
LeftForeArm  35.6848 -27.7332 -4.06208
LeftHand  -0.25398 0.0180481 5.50724
RightShoulder  5.52107 9.87497 35.3011
RightArm  -0.362293 -20.3501 34.3674
RightForeArm  22.9406 71.4424 34.0949
RightHand  -7.19675 18.8357 -33.93
LeftUpLeg  -13.734 13.2356 2.97697
LeftLeg  2.06928 40.504 -8.29434
LeftFoot  -0.791432 -0.194931 2.16254
LeftToes  1.06246e-005 4.65854e-005 -8.18502e-006
621
root  -49.1338 40.8766 -25.5196 11.8147 45.7894 6.82385
RightUpLeg  1.42077 -16.1904 -18.5988
RightLeg  2.61223 -43.7785 4.46718
RightFoot  3.93421 -1.29611 9.83543
RightToes  0.000482159 0.542163 -0.142577
Spine  13.4074 1.06959 17.0153
Spine1  7.93095 5.89462 -11.2776
HEad  -8.13355 12.7283 -12.8312
LeftShoulder1  8.47336 -12.6132 -45.8436
LeftArm  -3.60936 25.6165 -28.9961
LeftForeArm  35.6809 -25.9546 -3.67581
LeftHand  -0.25398 0.0180481 5.50724
RightShoulder  5.47269 9.78893 35.2058
RightArm  1.62325 -20.9135 35.152
RightForeArm  26.1214 72.3509 36.016
RightHand  -6.42349 17.4323 -32.2382
LeftUpLeg  -14.7311 16.1658 0.900954
LeftLeg  5.76204 36.5538 -5.39183
LeftFoot  -0.541215 -0.214602 2.30414
LeftToes  1.06246e-005 4.65854e-005 -8.18502e-006
622
root  -48.1097 40.6649 -25.6177 12.2509 48.8184 7.67255
RightUpLeg  3.83875 -17.0087 -20.6549
RightLeg  3.51382 -45.608 3.97086
RightFoot  4.17878 -1.57644 11.7685
RightToes  0.000482159 0.542163 -0.142577
Spine  12.294 1.33219 15.6301
Spine1  7.93469 5.85398 -11.0938
HEad  -7.84562 11.023 -10.7193
LeftShoulder1  8.41978 -12.5591 -45.7023
LeftArm  -3.01027 26.1492 -28.6773
LeftForeArm  35.0728 -23.9522 -3.33056
LeftHand  -0.25398 0.0180481 5.50724
RightShoulder  5.38737 9.63394 35.0449
RightArm  2.85509 -22.1532 35.7437
RightForeArm  30.8567 73.5565 38.9263
RightHand  -5.32206 15.2476 -29.7494
LeftUpLeg  -16.1891 21.1985 -2.82452
LeftLeg  10.238 27.6133 -1.65715
LeftFoot  -1.15823 -0.204688 2.37547
LeftToes  1.06246e-005 4.65854e-005 -8.18502e-006
623
root  -47.0348 40.47 -25.7221 12.9319 51.9763 9.12134
RightUpLeg  5.89836 -17.8394 -22.9041
RightLeg  6.59512 -46.9569 1.63063
RightFoot  2.84918 -1.42038 11.4964
RightToes  0.000482159 0.542163 -0.142577
Spine  11.4705 1.649 13.7536
Spine1  7.81814 5.77682 -10.4905
HEad  -7.21246 9.02009 -8.76963
LeftShoulder1  8.43951 -12.558 -45.816
LeftArm  -2.74084 26.0969 -27.9043
LeftForeArm  34.0978 -21.4894 -3.3166
LeftHand  -0.25398 0.0180481 5.50724
RightShoulder  5.29805 9.46377 34.8971
RightArm  2.98271 -23.8097 36.4758
RightForeArm  34.7799 74.5591 41.9152
RightHand  -4.88227 14.214 -28.7845
LeftUpLeg  -17.1462 25.8339 -6.83647
LeftLeg  13.5242 18.6929 1.07138
LeftFoot  -3.12899 -0.178847 2.77074
LeftToes  1.06246e-005 4.65854e-005 -8.18502e-006
